<svg width="193" height="37" viewBox="0 0 193 37" fill="none" xmlns="http://www.w3.org/2000/svg">
<path fill-rule="evenodd" clip-rule="evenodd" d="M32.0916 7.91246L15.437 20.2643L15.4415 20.5312L32.2014 20.3832L32.2844 29.7015L0.262329 29.9884L0 0.286992L32.022 0L32.0916 7.91246ZM8.75326 8.06269V14.8406L16.5917 8.06269H8.75326Z" fill="#0000D7"/>
<path d="M61.6541 0.529105V28.8976H55.166L44.8186 13.9931H44.6508V28.8976H36.8763V0.529105H43.4762L53.6559 15.3782H53.8796V0.529105H61.6541Z" fill="#0000D7"/>
<path d="M73.1621 0.529105L79.035 20.5311H79.2587L85.1316 0.529105H93.9129L84.4604 28.8976H73.8333L64.3808 0.529105H73.1621Z" fill="#0000D7"/>
<path d="M112.108 9.39426C112.034 8.47081 111.684 7.75051 111.06 7.23338C110.444 6.71625 109.507 6.45768 108.249 6.45768C107.447 6.45768 106.79 6.55464 106.277 6.74857C105.774 6.93326 105.401 7.18721 105.159 7.51042C104.916 7.83363 104.791 8.20301 104.781 8.61856C104.763 8.96024 104.823 9.2696 104.963 9.54663C105.112 9.81443 105.345 10.0591 105.662 10.2808C105.979 10.4932 106.385 10.6871 106.879 10.8626C107.373 11.038 107.96 11.195 108.641 11.3335L110.99 11.8322C112.574 12.1646 113.931 12.6033 115.059 13.1481C116.187 13.6929 117.11 14.3347 117.827 15.0735C118.545 15.803 119.072 16.6249 119.407 17.5391C119.752 18.4533 119.929 19.4507 119.939 20.5311C119.929 22.3965 119.459 23.9756 118.527 25.2684C117.594 26.5613 116.261 27.5448 114.527 28.2189C112.803 28.893 110.729 29.2301 108.305 29.2301C105.816 29.2301 103.644 28.8653 101.789 28.1358C99.9431 27.4062 98.5075 26.2842 97.4821 24.7698C96.466 23.2461 95.9533 21.2976 95.944 18.9243H103.327C103.374 19.7924 103.593 20.5219 103.984 21.1129C104.376 21.7039 104.926 22.1518 105.634 22.4565C106.352 22.7613 107.205 22.9136 108.193 22.9136C109.023 22.9136 109.717 22.812 110.277 22.6089C110.836 22.4057 111.26 22.1241 111.549 21.7639C111.838 21.4038 111.987 20.9928 111.996 20.5311C111.987 20.0971 111.843 19.7185 111.563 19.3953C111.293 19.0628 110.845 18.7673 110.221 18.5088C109.596 18.241 108.752 17.9916 107.69 17.7608L104.837 17.1513C102.302 16.6064 100.302 15.6968 98.8384 14.4225C97.3842 13.1389 96.6618 11.3889 96.6711 9.17264C96.6618 7.3719 97.1465 5.79741 98.1253 4.44917C99.1134 3.09169 100.479 2.03433 102.222 1.2771C103.975 0.51987 105.984 0.141254 108.249 0.141254C110.561 0.141254 112.56 0.524487 114.248 1.29095C115.935 2.05742 117.235 3.13786 118.149 4.53228C119.072 5.91746 119.538 7.53812 119.547 9.39426H112.108Z" fill="#0000D7"/>
<path d="M127.706 36.8763C126.821 36.8763 125.977 36.807 125.175 36.6685C124.374 36.5392 123.67 36.3591 123.064 36.1283L124.742 30.6983C125.376 30.92 125.954 31.0631 126.476 31.1278C127.007 31.1924 127.459 31.1555 127.832 31.0169C128.214 30.8784 128.489 30.6152 128.657 30.2274L128.825 29.8395L121.274 7.62123H129.328L132.796 22.3596H133.02L136.544 7.62123H144.654L136.823 30.6706C136.432 31.8434 135.863 32.8962 135.117 33.8289C134.381 34.7708 133.411 35.5142 132.209 36.059C131.006 36.6038 129.506 36.8763 127.706 36.8763Z" fill="#0000D7"/>
<path d="M154.568 16.9296V28.8976H146.849V7.62123H154.176V11.666H154.4C154.866 10.3177 155.686 9.26036 156.861 8.4939C158.045 7.72743 159.424 7.3442 161 7.3442C162.519 7.3442 163.838 7.69049 164.957 8.38308C166.085 9.06644 166.957 10.0084 167.572 11.2088C168.196 12.4093 168.504 13.7807 168.495 15.3228V28.8976H160.776V16.9296C160.785 15.8769 160.515 15.0504 159.965 14.4502C159.424 13.8499 158.669 13.5498 157.7 13.5498C157.066 13.5498 156.511 13.6883 156.036 13.9654C155.57 14.2332 155.211 14.621 154.959 15.1289C154.708 15.6276 154.577 16.2278 154.568 16.9296Z" fill="#0000D7"/>
<path d="M182.653 29.2855C180.322 29.2855 178.327 28.8284 176.668 27.9141C175.009 26.9907 173.736 25.7071 172.85 24.0633C171.965 22.4103 171.522 20.4942 171.522 18.3148C171.522 16.1355 171.965 14.2239 172.85 12.5802C173.736 10.9272 175.009 9.6436 176.668 8.72937C178.327 7.80592 180.322 7.3442 182.653 7.3442C184.759 7.3442 186.582 7.72281 188.12 8.48004C189.667 9.22804 190.865 10.29 191.714 11.666C192.562 13.0327 192.991 14.6395 193 16.4864H185.841C185.738 15.369 185.412 14.5194 184.862 13.9377C184.321 13.3466 183.622 13.0511 182.764 13.0511C182.093 13.0511 181.506 13.2451 181.003 13.6329C180.499 14.0115 180.108 14.5887 179.828 15.3644C179.548 16.1309 179.409 17.0959 179.409 18.2594C179.409 19.423 179.548 20.3926 179.828 21.1683C180.108 21.9348 180.499 22.5119 181.003 22.8998C181.506 23.2784 182.093 23.4677 182.764 23.4677C183.333 23.4677 183.836 23.3384 184.275 23.0799C184.713 22.812 185.067 22.4242 185.337 21.9163C185.617 21.3992 185.785 20.7712 185.841 20.0325H193C192.972 21.9071 192.539 23.5416 191.7 24.936C190.861 26.3212 189.672 27.3924 188.134 28.1496C186.605 28.9068 184.778 29.2855 182.653 29.2855Z" fill="#0000D7"/>
</svg>
