<svg width="85" height="29" viewBox="0 0 85 29" fill="none" xmlns="http://www.w3.org/2000/svg">
<path d="M0 7.29548V21.0857L7.52007 28.7013V17.9979L21.1744 28.7013L28.6944 21.0857V7.31775L21.2616 0L21.1187 11.1033L7.53213 0L0 7.29548Z" fill="#EDFFF9"/>
<path fill-rule="evenodd" clip-rule="evenodd" d="M56.5002 2.20779C57.5326 2.20781 58.4638 2.43683 59.2934 2.89496C60.1269 3.35309 60.7876 4.02349 61.2756 4.90593C61.7637 5.78841 62.0076 6.86428 62.0076 8.13353C62.0076 9.40279 61.7637 10.4787 61.2756 11.3611C60.7876 12.2436 60.1269 12.914 59.2934 13.3721C58.4638 13.8302 57.5326 14.0593 56.5002 14.0593C55.464 14.0593 54.5308 13.8285 53.7011 13.3666C52.8714 12.9047 52.2125 12.2343 51.7244 11.3556C51.2401 10.4731 50.998 9.39904 50.998 8.13353C50.998 6.8643 51.2402 5.7884 51.7244 4.90593C52.2125 4.02349 52.8714 3.35309 53.7011 2.89496C54.5308 2.43681 55.464 2.20779 56.5002 2.20779ZM56.5002 4.65244C55.9483 4.65244 55.4733 4.78565 55.0754 5.05223C54.6774 5.31886 54.3714 5.71152 54.1574 6.22974C53.9472 6.74795 53.8421 7.38253 53.8421 8.13353C53.8421 8.88454 53.9472 9.51912 54.1574 10.0373C54.3714 10.5555 54.6774 10.9482 55.0754 11.2148C55.4733 11.4814 55.9483 11.6146 56.5002 11.6146C57.0558 11.6146 57.5308 11.4814 57.925 11.2148C58.3229 10.9482 58.6268 10.5555 58.8371 10.0373C59.0511 9.51912 59.1583 8.88455 59.1583 8.13353C59.1583 7.38253 59.0511 6.74795 58.8371 6.22974C58.6268 5.71154 58.3229 5.31886 57.925 5.05223C57.5308 4.78563 57.0558 4.65246 56.5002 4.65244Z" fill="#EDFFF9"/>
<path d="M66.4227 9.56423C66.4227 9.96228 66.5093 10.3173 66.682 10.629C66.8584 10.9406 67.1042 11.1847 67.4195 11.3611C67.7348 11.5376 68.1012 11.626 68.5179 11.626C68.9345 11.626 69.2986 11.5376 69.6101 11.3611C69.9254 11.1847 70.1715 10.9406 70.3479 10.629C70.5244 10.3173 70.6127 9.96228 70.6127 9.56423V2.36549H73.3946V9.80663C73.3946 10.6664 73.19 11.4155 72.7809 12.0538C72.3717 12.6885 71.8009 13.1806 71.0688 13.5298C70.3367 13.8753 69.4864 14.0479 68.5179 14.0479C67.538 14.0479 66.6818 13.8753 65.9497 13.5298C65.2176 13.1806 64.6489 12.6885 64.2435 12.0538C63.8381 11.4155 63.6353 10.6665 63.6353 9.80663V2.36549H66.4227V9.56423Z" fill="#EDFFF9"/>
<path d="M38.8451 4.62996H33.5909V6.99576H38.4341V9.26577H33.5909V11.6371H38.8451V13.9016H30.8035V2.36549H38.8451V4.62996Z" fill="#EDFFF9"/>
<path fill-rule="evenodd" clip-rule="evenodd" d="M45.4004 2.36549C46.2639 2.3655 46.9867 2.48763 47.5686 2.73171C48.1542 2.9758 48.5934 3.31744 48.8862 3.75676C49.1828 4.19611 49.3312 4.70495 49.3312 5.28324C49.3312 5.72255 49.2392 6.11499 49.0553 6.46044C48.8713 6.80216 48.6179 7.08584 48.295 7.31116C47.9721 7.53647 47.5984 7.69413 47.1741 7.78425V7.89698C47.6396 7.91951 48.0696 8.04527 48.4637 8.27429C48.8617 8.50335 49.1808 8.8226 49.4211 9.23189C49.6614 9.63745 49.7817 10.1182 49.7817 10.674C49.7817 11.2936 49.6241 11.8475 49.3087 12.3357C48.9934 12.8201 48.5372 13.2032 47.9403 13.4848C47.3433 13.7627 46.6185 13.9016 45.7662 13.9016H40.5911V2.36549H45.4004ZM43.3785 11.6541H45.1017C45.7062 11.6541 46.1513 11.5394 46.4366 11.3103C46.7256 11.0813 46.8702 10.762 46.8702 10.3527C46.8702 10.0561 46.8006 9.80073 46.6617 9.58671C46.5228 9.36896 46.3257 9.20198 46.0705 9.08558C45.8152 8.96542 45.5092 8.90509 45.1525 8.90509H43.3785V11.6541ZM43.3785 7.10818H44.9216C45.2257 7.10818 45.4962 7.05772 45.7327 6.95633C45.9692 6.85494 46.1531 6.70831 46.2845 6.51681C46.4196 6.32532 46.4871 6.09442 46.4871 5.8241C46.4871 5.43731 46.3501 5.13304 46.076 4.91148C45.802 4.68998 45.4323 4.57916 44.9669 4.57914H43.3785V7.10818Z" fill="#EDFFF9"/>
<path fill-rule="evenodd" clip-rule="evenodd" d="M79.9062 2.36549C80.7696 2.3655 81.5148 2.52137 82.1418 2.83305C82.7725 3.14098 83.2588 3.58409 83.6004 4.1624C83.942 4.73691 84.1128 5.41843 84.1128 6.20695C84.1128 7.00682 83.9382 7.68673 83.5891 8.24626C83.2424 8.79803 82.7512 9.21982 82.1159 9.51248L84.507 13.9016H81.4662L79.3574 9.95293H77.9296V13.9016H75.1418V2.36549H79.9062ZM77.9296 7.75623H79.3035C79.724 7.75622 80.0751 7.70157 80.3567 7.59267C80.642 7.48002 80.8578 7.31099 81.0043 7.0857C81.1507 6.85664 81.2238 6.56366 81.2238 6.20695C81.2238 5.85025 81.1507 5.55546 81.0043 5.32266C80.8578 5.08611 80.642 4.90961 80.3567 4.7932C80.0714 4.67303 79.7203 4.61302 79.3035 4.61302H77.9296V7.75623Z" fill="#EDFFF9"/>
<path fill-rule="evenodd" clip-rule="evenodd" d="M48.1426 15.1391C49.175 15.1391 50.1061 15.3682 50.9358 15.8263C51.7693 16.2845 52.4302 16.9548 52.9183 17.8373C53.4063 18.7198 53.6503 19.7956 53.6503 21.0649C53.6503 22.3341 53.4063 23.41 52.9183 24.2925C52.4302 25.175 51.7693 25.8453 50.9358 26.3035C50.1061 26.7616 49.175 26.9906 48.1426 26.9906C47.1064 26.9906 46.1734 26.7598 45.3438 26.2979C44.5141 25.836 43.8552 25.1656 43.3671 24.2869C42.8828 23.4045 42.6407 22.3304 42.6407 21.0649C42.6407 19.7956 42.8829 18.7198 43.3671 17.8373C43.8552 16.9548 44.5141 16.2845 45.3438 15.8263C46.1734 15.3682 47.1064 15.1392 48.1426 15.1391ZM48.1426 17.5838C47.5908 17.5838 47.116 17.717 46.7181 17.9836C46.3201 18.2502 46.0141 18.6429 45.8001 19.1611C45.5899 19.6793 45.4845 20.3139 45.4845 21.0649C45.4845 21.8159 45.5899 22.4505 45.8001 22.9687C46.0141 23.4869 46.3201 23.8796 46.7181 24.1462C47.116 24.4127 47.5908 24.546 48.1426 24.546C48.6981 24.546 49.1732 24.4127 49.5674 24.1462C49.9653 23.8796 50.2695 23.4869 50.4798 22.9687C50.6938 22.4505 50.8006 21.8159 50.8006 21.0649C50.8006 20.3139 50.6937 19.6793 50.4798 19.1611C50.2695 18.6429 49.9653 18.2502 49.5674 17.9836C49.1732 17.717 48.6982 17.5838 48.1426 17.5838Z" fill="#EDFFF9"/>
<path fill-rule="evenodd" clip-rule="evenodd" d="M60.656 15.1391C61.6885 15.1392 62.6196 15.3682 63.4493 15.8263C64.2827 16.2844 64.9434 16.9548 65.4315 17.8373C65.9195 18.7198 66.1637 19.7956 66.1637 21.0649C66.1637 22.3342 65.9195 23.41 65.4315 24.2925C64.9434 25.1749 64.2827 25.8453 63.4493 26.3035C62.6196 26.7616 61.6885 26.9906 60.656 26.9906C59.6199 26.9906 58.6869 26.7598 57.8572 26.2979C57.0275 25.836 56.3684 25.1657 55.8803 24.2869C55.396 23.4045 55.1539 22.3304 55.1539 21.0649C55.1539 19.7957 55.396 18.7198 55.8803 17.8373C56.3684 16.9548 57.0275 16.2845 57.8572 15.8263C58.6869 15.3682 59.6199 15.1391 60.656 15.1391ZM60.656 17.5838C60.1042 17.5838 59.6292 17.717 59.2312 17.9836C58.8333 18.2502 58.5273 18.6429 58.3133 19.1611C58.1031 19.6793 57.998 20.3139 57.998 21.0649C57.998 21.8159 58.1031 22.4505 58.3133 22.9687C58.5273 23.4869 58.8333 23.8796 59.2312 24.1462C59.6292 24.4128 60.1042 24.546 60.656 24.546C61.2116 24.546 61.6867 24.4128 62.0808 24.1462C62.4788 23.8796 62.7827 23.4869 62.9929 22.9687C63.2069 22.4505 63.3141 21.8159 63.3141 21.0649C63.3141 20.3139 63.2069 19.6793 62.9929 19.1611C62.7827 18.6429 62.4788 18.2502 62.0808 17.9836C61.6867 17.717 61.2116 17.5838 60.656 17.5838Z" fill="#EDFFF9"/>
<path d="M41.0161 15.307V26.8329H38.2339V22.1971H33.6894V26.8329H30.9017V15.307H33.6894V19.9271H38.2339V15.2968H38.2514L41.0161 15.307Z" fill="#EDFFF9"/>
<path fill-rule="evenodd" clip-rule="evenodd" d="M79.3011 15.2968C80.4761 15.2969 81.4879 15.5277 82.3364 15.9896C83.1886 16.4477 83.8457 17.1088 84.3075 17.9725C84.7692 18.8324 85 19.8615 85 21.0593C85 22.261 84.7692 23.2936 84.3075 24.1573C83.8494 25.021 83.1942 25.6839 82.3419 26.1458C81.4897 26.6039 80.4779 26.8329 79.3066 26.8329H67.7912V15.2968H79.3011ZM70.5786 24.4557H79.1995C79.8452 24.4557 80.3915 24.347 80.8383 24.1292C81.2888 23.9077 81.6285 23.549 81.8575 23.0534C82.0903 22.554 82.2067 21.8892 82.2067 21.0593C82.2067 20.2294 82.0903 19.5683 81.8575 19.0764C81.6248 18.5808 81.2814 18.2239 80.8272 18.0061C80.3767 17.7845 79.8208 17.6737 79.16 17.6737H70.5786V24.4557Z" fill="#EDFFF9"/>
</svg>
