<svg width="107" height="36" viewBox="0 0 107 36" fill="none" xmlns="http://www.w3.org/2000/svg">
<path d="M0 9.15071V26.4478L9.43241 36V22.5748L26.559 36L35.9914 26.4478V9.17864L26.6683 0L26.4892 13.9268L9.44753 0L0 9.15071Z" fill="#093645"/>
<path fill-rule="evenodd" clip-rule="evenodd" d="M70.8681 2.76923C72.163 2.76925 73.331 3.05651 74.3717 3.63114C75.417 4.20578 76.2458 5.04665 76.8579 6.1535C77.4701 7.26039 77.776 8.60986 77.776 10.2019C77.776 11.7939 77.4701 13.1434 76.8579 14.2503C76.2457 15.3571 75.417 16.198 74.3717 16.7726C73.331 17.3472 72.163 17.6345 70.8681 17.6345C69.5684 17.6345 68.3979 17.345 67.3572 16.7657C66.3165 16.1863 65.4901 15.3455 64.8779 14.2433C64.2704 13.1364 63.9668 11.7892 63.9668 10.2019C63.9668 8.60988 64.2705 7.26038 64.8779 6.1535C65.49 5.04666 66.3165 4.20578 67.3572 3.63114C68.3979 3.05649 69.5684 2.76923 70.8681 2.76923ZM70.8681 5.83555C70.1759 5.83555 69.5801 6.00264 69.081 6.33701C68.5818 6.67144 68.198 7.16395 67.9296 7.81396C67.6659 8.46394 67.5341 9.2599 67.5341 10.2019C67.5341 11.1439 67.6659 11.9398 67.9296 12.5898C68.198 13.2398 68.5818 13.7323 69.081 14.0667C69.5801 14.4011 70.1759 14.5682 70.8681 14.5682C71.565 14.5682 72.1608 14.4012 72.6552 14.0667C73.1544 13.7323 73.5356 13.2398 73.7993 12.5898C74.0677 11.9398 74.2021 11.1439 74.2021 10.2019C74.2021 9.2599 74.0676 8.46395 73.7993 7.81396C73.5356 7.16398 73.1544 6.67143 72.6552 6.33701C72.1608 6.00261 71.565 5.83557 70.8681 5.83555Z" fill="#093645"/>
<path d="M83.3139 11.9964C83.3139 12.4957 83.4225 12.941 83.6391 13.3319C83.8604 13.7228 84.1687 14.0289 84.5642 14.2503C84.9597 14.4716 85.4192 14.5825 85.9419 14.5825C86.4645 14.5825 86.9211 14.4716 87.3119 14.2503C87.7074 14.0289 88.016 13.7228 88.2373 13.3319C88.4586 12.941 88.5695 12.4957 88.5695 11.9964V2.96703H92.0588V12.3004C92.0587 13.3789 91.8022 14.3185 91.289 15.1191C90.7757 15.9151 90.0598 16.5324 89.1415 16.9704C88.2233 17.4037 87.1567 17.6202 85.9419 17.6202C84.7128 17.6202 83.6389 17.4038 82.7206 16.9704C81.8024 16.5324 81.0891 15.9151 80.5805 15.1191C80.072 14.3185 79.8177 13.3789 79.8177 12.3004V2.96703H83.3139V11.9964Z" fill="#093645"/>
<path d="M48.7234 5.80735H42.133V8.77477H48.2078V11.622H42.133V14.5964H48.7234V17.4367H38.6367V2.96703H48.7234V5.80735Z" fill="#093645"/>
<path fill-rule="evenodd" clip-rule="evenodd" d="M56.9457 2.96703C58.0287 2.96704 58.9353 3.12023 59.6652 3.42638C60.3997 3.73254 60.9506 4.16106 61.3179 4.7121C61.6899 5.26318 61.876 5.90141 61.876 6.62676C61.876 7.17779 61.7607 7.67002 61.53 8.10332C61.2992 8.53194 60.9813 8.88776 60.5763 9.17037C60.1714 9.45298 59.7026 9.65073 59.1704 9.76378V9.90518C59.7543 9.93344 60.2936 10.0912 60.788 10.3784C61.2871 10.6657 61.6874 11.0662 61.9888 11.5795C62.2902 12.0882 62.4411 12.6912 62.4411 13.3884C62.4411 14.1655 62.2434 14.8603 61.8478 15.4726C61.4523 16.0802 60.8801 16.5608 60.1314 16.914C59.3826 17.2626 58.4735 17.4367 57.4045 17.4367H50.9134V2.96703H56.9457ZM54.4096 14.6177H56.571C57.3292 14.6177 57.8875 14.4738 58.2454 14.1865C58.6079 13.8992 58.7892 13.4987 58.7892 12.9854C58.7892 12.6134 58.7019 12.293 58.5277 12.0246C58.3535 11.7515 58.1063 11.542 57.7861 11.396C57.4659 11.2453 57.0821 11.1696 56.6348 11.1696H54.4096V14.6177ZM54.4096 8.91578H56.3451C56.7265 8.91578 57.0658 8.85249 57.3624 8.72532C57.6591 8.59814 57.8898 8.41423 58.0546 8.17402C58.2241 7.93383 58.3087 7.64423 58.3087 7.30516C58.3087 6.82001 58.1369 6.43836 57.7931 6.16046C57.4494 5.88263 56.9856 5.74363 56.4019 5.7436H54.4096V8.91578Z" fill="#093645"/>
<path fill-rule="evenodd" clip-rule="evenodd" d="M100.226 2.96703C101.309 2.96704 102.244 3.16255 103.03 3.55349C103.821 3.93972 104.431 4.49552 104.86 5.2209C105.288 5.9415 105.503 6.79633 105.503 7.78537C105.503 8.78864 105.284 9.64146 104.846 10.3433C104.411 11.0354 103.795 11.5644 102.998 11.9315L105.997 17.4367H102.183L99.5379 12.4839H97.7469V17.4367H94.2503V2.96703H100.226ZM97.7469 9.72862H99.4703C99.9977 9.72862 100.438 9.66007 100.791 9.52348C101.149 9.38217 101.42 9.17017 101.604 8.88758C101.787 8.60027 101.879 8.23279 101.879 7.78537C101.879 7.33797 101.787 6.96821 101.604 6.67621C101.42 6.3795 101.149 6.15812 100.791 6.0121C100.433 5.86138 99.993 5.7861 99.4703 5.7861H97.7469V9.72862Z" fill="#093645"/>
<path fill-rule="evenodd" clip-rule="evenodd" d="M60.3852 18.989C61.6801 18.989 62.8481 19.2763 63.8887 19.8509C64.9342 20.4256 65.7632 21.2664 66.3754 22.3733C66.9875 23.4802 67.2934 24.8297 67.2934 26.4217C67.2934 28.0137 66.9875 29.3632 66.3754 30.47C65.7632 31.5769 64.9342 32.4178 63.8887 32.9924C62.8481 33.567 61.6801 33.8543 60.3852 33.8543C59.0855 33.8543 57.9153 33.5648 56.8746 32.9854C55.8339 32.4061 55.0075 31.5652 54.3953 30.4631C53.7879 29.3562 53.4842 28.009 53.4842 26.4217C53.4842 24.8296 53.7879 23.4802 54.3953 22.3733C55.0075 21.2664 55.834 20.4256 56.8746 19.8509C57.9153 19.2763 59.0855 18.989 60.3852 18.989ZM60.3852 22.0553C59.6931 22.0554 59.0975 22.2225 58.5984 22.5568C58.0992 22.8912 57.7154 23.3837 57.447 24.0337C57.1833 24.6837 57.0511 25.4797 57.0511 26.4217C57.0511 27.3637 57.1833 28.1596 57.447 28.8096C57.7154 29.4596 58.0992 29.9521 58.5984 30.2865C59.0975 30.6208 59.6931 30.788 60.3852 30.788C61.082 30.788 61.6779 30.6209 62.1723 30.2865C62.6714 29.9521 63.053 29.4596 63.3167 28.8096C63.5851 28.1596 63.7192 27.3636 63.7192 26.4217C63.7192 25.4797 63.5851 24.6837 63.3167 24.0337C63.053 23.3837 62.6714 22.8912 62.1723 22.5568C61.6779 22.2224 61.082 22.0553 60.3852 22.0553Z" fill="#093645"/>
<path fill-rule="evenodd" clip-rule="evenodd" d="M76.0808 18.989C77.3757 18.989 78.5437 19.2763 79.5844 19.8509C80.6297 20.4256 81.4584 21.2664 82.0706 22.3733C82.6828 23.4802 82.9891 24.8296 82.9891 26.4217C82.9891 28.0137 82.6828 29.3631 82.0706 30.47C81.4584 31.5769 80.6297 32.4178 79.5844 32.9924C78.5437 33.567 77.3757 33.8543 76.0808 33.8543C74.7812 33.8543 73.6109 33.5647 72.5703 32.9854C71.5295 32.4061 70.7028 31.5653 70.0906 30.4631C69.4831 29.3562 69.1795 28.009 69.1795 26.4217C69.1795 24.8297 69.4832 23.4802 70.0906 22.3733C70.7028 21.2664 71.5295 20.4256 72.5703 19.8509C73.6109 19.2763 74.7811 18.989 76.0808 18.989ZM76.0808 22.0553C75.3886 22.0553 74.7928 22.2224 74.2937 22.5568C73.7945 22.8912 73.4107 23.3837 73.1423 24.0337C72.8786 24.6837 72.7468 25.4797 72.7468 26.4217C72.7468 27.3636 72.8786 28.1596 73.1423 28.8096C73.4107 29.4596 73.7945 29.9521 74.2937 30.2865C74.7928 30.6209 75.3886 30.788 76.0808 30.788C76.7777 30.788 77.3735 30.6209 77.8679 30.2865C78.3671 29.9521 78.7483 29.4596 79.012 28.8096C79.2804 28.1596 79.4148 27.3637 79.4148 26.4217C79.4148 25.4797 79.2803 24.6837 79.012 24.0337C78.7483 23.3838 78.3671 22.8912 77.8679 22.5568C77.3735 22.2224 76.7777 22.0553 76.0808 22.0553Z" fill="#093645"/>
<path d="M51.4464 19.1996V33.6565H47.9567V27.8418H42.2566V33.6565H38.76V19.1996H42.2566V24.9945H47.9567V19.1868H47.9787L51.4464 19.1996Z" fill="#093645"/>
<path fill-rule="evenodd" clip-rule="evenodd" d="M99.4672 19.1868C100.941 19.1868 102.21 19.4764 103.274 20.0557C104.343 20.6303 105.168 21.4595 105.747 22.5429C106.326 23.6215 106.615 24.9122 106.615 26.4147C106.615 27.9219 106.326 29.2171 105.747 30.3004C105.172 31.3838 104.35 32.2152 103.281 32.7946C102.212 33.3692 100.943 33.6565 99.4742 33.6565H85.0304V19.1868H99.4672ZM88.5266 30.6748H99.3398C100.15 30.6748 100.835 30.5384 101.395 30.2653C101.96 29.9874 102.387 29.5375 102.674 28.9158C102.966 28.2894 103.112 27.4556 103.112 26.4147C103.112 25.3738 102.966 24.5445 102.674 23.9275C102.382 23.3058 101.951 22.8582 101.381 22.585C100.816 22.3071 100.119 22.1681 99.2903 22.1681H88.5266V30.6748Z" fill="#093645"/>
</svg>
