<svg width="353" height="336" viewBox="0 0 353 336" fill="none" xmlns="http://www.w3.org/2000/svg">
<path d="M191.541 383.677C194.888 383.556 197.73 384.255 200.067 385.772C202.428 387.265 204.246 389.53 205.521 392.567C206.82 395.58 207.551 399.317 207.713 403.779C207.794 406.016 207.719 408.084 207.489 409.984C206.649 409.995 205.807 410 204.965 410C195.511 410 186.207 409.358 177.093 408.119C176.982 407.09 176.907 406.015 176.866 404.896C176.705 400.435 177.151 396.655 178.204 393.558C179.281 390.435 180.93 388.044 183.152 386.385C185.398 384.701 188.195 383.798 191.541 383.677ZM204.965 0C213.99 0 222.879 0.584076 231.596 1.71484C230.064 7.98155 229.86 13.7933 230.986 19.1504C232.261 25.3733 235.148 30.7178 239.646 35.1836C244.115 39.6656 250.017 43.0246 257.353 45.2598L284.511 53.5352L294.558 20.5635C304.634 25.4673 314.248 31.1729 323.317 37.5967C322.369 38.5674 321.431 39.5988 320.506 40.6904C315.139 47.0205 311.851 53.3944 310.641 59.8125C309.415 66.2492 309.951 72.3516 312.251 78.1191C314.535 83.9052 318.251 88.9794 323.396 93.3418C328.579 97.7356 334.211 100.586 340.293 101.893C346.341 103.202 352.439 102.726 358.589 100.463C364.114 98.4209 369.334 94.7168 374.248 89.3516C379.855 97.5435 384.886 106.161 389.276 115.149C387.708 115.602 386.111 116.14 384.487 116.766C376.743 119.749 370.802 123.767 366.663 128.819C362.502 133.881 360.049 139.495 359.303 145.659C358.534 151.832 359.363 158.066 361.788 164.36C364.231 170.701 367.807 175.902 372.519 179.964C377.199 184.012 382.779 186.517 389.261 187.479C395.278 188.363 401.858 187.536 409.001 184.999C409.638 191.58 409.965 198.252 409.965 205C409.965 208.581 409.872 212.141 409.69 215.677L367.523 210.502L365.059 230.589L393.961 234.136L390.698 260.727L361.795 257.18L359.33 277.267L395.148 281.662C390.444 293.322 384.697 304.448 378.025 314.929C377.727 313.539 377.29 312.183 376.711 310.859C374.978 306.85 371.888 303.366 367.443 300.409C363.039 297.479 358.623 295.925 354.194 295.747C349.766 295.569 345.563 296.65 341.588 298.989C337.613 301.328 334.093 304.801 331.028 309.407L313.204 336.196L343.342 356.247C335.379 363.537 326.84 370.207 317.798 376.179L296.493 339.479L278.991 349.641L300.382 386.486C293.331 390.201 286.036 393.516 278.529 396.403L258.341 361.629L240.839 371.79L258.864 402.84C249.003 405.52 238.847 407.482 228.454 408.668C228.567 406.856 228.59 404.975 228.52 403.025C228.219 394.732 226.353 387.807 222.922 382.249C219.49 376.667 214.981 372.52 209.396 369.809C203.809 367.073 197.645 365.827 190.903 366.071C184.113 366.317 178.031 368.007 172.657 371.14C167.306 374.247 163.121 378.709 160.103 384.524C157.293 389.955 155.933 396.487 156.022 404.12C145.3 401.494 134.909 398.023 124.924 393.784C124.417 391.822 123.568 389.995 122.375 388.305C120.65 385.824 118.365 383.843 115.521 382.363L115.833 381.705C118.692 382.414 121.42 382.551 124.016 382.115C126.622 381.657 128.945 380.662 130.985 379.131C133.047 377.61 134.665 375.611 135.838 373.133C137.457 369.711 137.965 366.313 137.36 362.939C136.778 359.576 135.058 356.374 132.203 353.331C129.37 350.299 125.386 347.568 120.254 345.139L91.0391 331.311L75.5654 364.002C66.1226 356.308 57.3777 347.791 49.4414 338.558L59.127 330.555L39.5576 306.873L49.4346 298.711L70.7656 324.525L83.3359 314.137L49.1123 272.724L21.1396 295.839C16.3252 286.115 12.2599 275.954 9.01855 265.432L50.2637 255.261L45.418 235.611L7.5332 244.954L7.39355 244.389L38.9336 209.318L34.8203 192.638L0 201.225C2.01329 89.7484 93.0078 0.000123368 204.965 0ZM110.307 357.988C112.587 359.068 114.209 360.52 115.171 362.344C116.143 364.146 116.137 366.09 115.15 368.174C114.496 369.555 113.59 370.562 112.432 371.195C111.305 371.817 110.008 372.09 108.541 372.013C107.074 371.936 105.54 371.517 103.939 370.76L96.4375 367.21L102.542 354.312L110.307 357.988ZM350.649 316.254C352.271 316.225 353.971 316.803 355.749 317.985C357.507 319.155 358.676 320.487 359.256 321.98C359.849 323.454 359.929 325.065 359.493 326.815C359.051 328.532 358.171 330.381 356.854 332.36L352.901 338.3L337.87 328.3L341.822 322.359C343.139 320.38 344.535 318.874 346.008 317.843C347.474 316.778 349.021 316.249 350.649 316.254ZM253.853 182.991L157.702 104.434L104.399 156.051V253.619L157.617 307.5V231.771L254.247 307.5L307.465 253.619V156.209L254.864 104.434L253.853 182.991ZM5.41992 221.182L1.03906 226.11C0.896158 224.713 0.767052 223.312 0.652344 221.907L5.31543 220.758L5.41992 221.182ZM397.511 134.476C400.983 143.952 403.774 153.757 405.828 163.83C404.954 164.234 404.034 164.625 403.067 164.997C398.901 166.602 395.182 167.411 391.91 167.423C388.607 167.421 385.809 166.64 383.518 165.078C381.194 163.503 379.431 161.152 378.228 158.027C377.024 154.903 376.759 151.988 377.434 149.284C378.077 146.566 379.626 144.109 382.083 141.914C384.509 139.705 387.805 137.798 391.972 136.193C393.911 135.446 395.758 134.875 397.511 134.476ZM339.785 50.5703C347.491 57.3032 354.689 64.6027 361.312 72.4053C360.877 72.9703 360.417 73.5406 359.931 74.1143C357.043 77.52 354.166 80.0128 351.301 81.5918C348.401 83.1734 345.571 83.8276 342.812 83.5557C340.017 83.2865 337.343 82.0697 334.789 79.9043C332.235 77.7388 330.606 75.307 329.901 72.6104C329.163 69.9166 329.346 67.0178 330.45 63.9141C331.52 60.813 333.499 57.5599 336.387 54.1543C337.518 52.8195 338.652 51.625 339.785 50.5703ZM251.711 5.35352C259.954 7.276 268.006 9.6963 275.833 12.5801L270.16 31.2012L263.336 29.1221C259.622 27.9903 256.661 26.4663 254.454 24.5508C252.224 22.6284 250.873 20.073 250.398 16.8848C249.925 13.8434 250.363 9.99959 251.711 5.35352Z" fill="#093645"/>
</svg>
