<svg width="493" height="404" viewBox="0 0 493 404" fill="none" xmlns="http://www.w3.org/2000/svg">
<path d="M252.297 437.377C256.705 437.217 260.448 438.137 263.527 440.137C266.637 442.103 269.033 445.087 270.713 449.088C272.424 453.056 273.386 457.979 273.599 463.856C273.705 466.802 273.606 469.526 273.303 472.028C272.196 472.042 271.088 472.05 269.979 472.05C257.526 472.05 245.27 471.205 233.266 469.573C233.12 468.217 233.021 466.802 232.968 465.328C232.755 459.451 233.342 454.472 234.729 450.392C236.148 446.278 238.321 443.129 241.248 440.944C244.206 438.726 247.889 437.537 252.297 437.377ZM269.979 -68C281.866 -68 293.574 -67.2306 305.056 -65.7412C303.038 -57.4869 302.77 -49.8316 304.254 -42.7754C305.933 -34.5785 309.736 -27.5386 315.662 -21.6562C321.548 -15.7527 329.323 -11.3289 338.984 -8.38477L374.757 2.5166L387.99 -40.9141C401.263 -34.4547 413.927 -26.9399 425.873 -18.4785C424.623 -17.1997 423.388 -15.8415 422.169 -14.4033C415.1 -6.0652 410.768 2.33105 409.174 10.7852C407.559 19.2636 408.266 27.3015 411.296 34.8984C414.305 42.5198 419.199 49.2031 425.977 54.9492C432.803 60.7367 440.221 64.4916 448.232 66.2129C456.198 67.9379 464.231 67.3103 472.331 64.3301C479.611 61.64 486.488 56.7596 492.962 49.6904C500.348 60.4808 506.971 71.8345 512.753 83.6738C510.687 84.2694 508.584 84.9786 506.444 85.8027C496.244 89.7324 488.418 95.025 482.967 101.681C477.486 108.348 474.254 115.742 473.271 123.861C472.259 131.992 473.351 140.204 476.545 148.495C479.762 156.846 484.474 163.697 490.68 169.048C496.844 174.38 504.195 177.68 512.732 178.946C520.658 180.111 529.325 179.021 538.733 175.68C539.573 184.348 540.004 193.136 540.004 202.024C540.004 206.741 539.882 211.43 539.643 216.088L484.101 209.272L480.854 235.73L518.924 240.403L514.625 275.428L476.555 270.756L473.309 297.214L520.487 303.004C514.291 318.362 506.722 333.02 497.935 346.825C497.542 344.994 496.966 343.206 496.202 341.462C493.919 336.181 489.85 331.592 483.995 327.697C478.194 323.837 472.376 321.791 466.543 321.557C460.71 321.323 455.175 322.746 449.938 325.827C444.702 328.908 440.066 333.483 436.029 339.55L412.552 374.836L452.25 401.249C441.761 410.85 430.513 419.635 418.604 427.501L390.54 379.161L367.485 392.545L395.661 441.078C386.373 445.971 376.765 450.338 366.877 454.141L340.285 408.336L317.231 421.72L340.975 462.617C327.986 466.148 314.608 468.734 300.919 470.296C301.067 467.908 301.098 465.431 301.005 462.863C300.609 451.939 298.152 442.817 293.633 435.496C289.113 428.144 283.173 422.681 275.815 419.109C268.457 415.506 260.337 413.866 251.457 414.188C242.513 414.512 234.502 416.737 227.423 420.863C220.375 424.957 214.862 430.834 210.886 438.494C207.185 445.648 205.394 454.251 205.513 464.305C191.39 460.845 177.703 456.275 164.55 450.691C163.883 448.107 162.763 445.7 161.191 443.473C158.919 440.205 155.91 437.597 152.165 435.647L152.575 434.78C156.341 435.714 159.934 435.894 163.354 435.319C166.786 434.716 169.846 433.406 172.533 431.39C175.249 429.387 177.38 426.753 178.925 423.488C181.058 418.981 181.726 414.506 180.93 410.062C180.162 405.632 177.898 401.413 174.137 397.405C170.405 393.411 165.159 389.814 158.398 386.614L119.916 368.4L99.5322 411.466C87.094 401.331 75.576 390.11 65.1221 377.948L77.8828 367.404L52.1055 336.212L65.1143 325.461L93.2129 359.463L109.771 345.78L64.6904 291.229L27.8447 321.677C21.5032 308.868 16.1484 295.485 11.8789 281.625L66.207 268.228L59.8242 242.346L9.92285 254.652L9.73926 253.907L51.2832 207.713L45.8652 185.741L0 197.051C2.65254 50.2154 122.51 -67.9999 269.979 -68ZM145.295 403.54C148.299 404.962 150.436 406.874 151.703 409.277C152.984 411.652 152.975 414.211 151.676 416.956C150.814 418.776 149.621 420.103 148.095 420.937C146.611 421.755 144.903 422.114 142.971 422.013C141.038 421.911 139.017 421.361 136.908 420.363L127.027 415.687L135.068 398.699L145.295 403.54ZM461.874 348.568C464.01 348.531 466.25 349.291 468.592 350.849C470.907 352.389 472.447 354.143 473.211 356.11C473.993 358.051 474.096 360.174 473.522 362.479C472.939 364.741 471.78 367.175 470.045 369.783L464.839 377.606L445.041 364.435L450.246 356.61C451.981 354.002 453.82 352.019 455.76 350.661C457.691 349.259 459.729 348.562 461.874 348.568ZM334.373 173.036L207.724 69.5596L137.514 137.549V266.065L207.612 337.037V237.288L334.893 337.037L404.991 266.065V137.758L335.706 69.5596L334.373 173.036ZM7.13867 223.34L1.36816 229.832C1.1799 227.992 1.01049 226.146 0.859375 224.295L7.00098 222.781L7.13867 223.34ZM523.599 109.131C528.172 121.614 531.851 134.528 534.556 147.797C533.404 148.329 532.192 148.843 530.919 149.333C525.431 151.447 520.532 152.512 516.223 152.528C511.872 152.526 508.187 151.496 505.168 149.439C502.108 147.364 499.785 144.269 498.199 140.153C496.614 136.037 496.265 132.198 497.153 128.636C498 125.055 500.042 121.82 503.278 118.929C506.473 116.019 510.816 113.508 516.304 111.394C518.858 110.409 521.29 109.656 523.599 109.131ZM447.565 -1.39062C457.715 7.47767 467.195 17.093 475.92 27.3701C475.346 28.1149 474.74 28.8669 474.099 29.623C470.296 34.1089 466.507 37.3919 462.732 39.4717C458.913 41.5552 455.185 42.4178 451.55 42.0596C447.869 41.7051 444.347 40.1014 440.982 37.249C437.618 34.3966 435.471 31.1946 434.544 27.6426C433.571 24.0943 433.813 20.2759 435.268 16.1875C436.677 12.1027 439.284 7.81706 443.087 3.33105C444.578 1.57212 446.072 -0.00104523 447.565 -1.39062ZM331.553 -60.9473C342.411 -58.4149 353.017 -55.2274 363.327 -51.4287L355.854 -26.9014L346.864 -29.6406C341.972 -31.1313 338.073 -33.1381 335.166 -35.6611C332.229 -38.1935 330.448 -41.5598 329.823 -45.7598C329.2 -49.7656 329.777 -54.8279 331.553 -60.9473Z" fill="#093645"/>
</svg>
