<svg width="124" height="41" viewBox="0 0 124 41" fill="none" xmlns="http://www.w3.org/2000/svg">
<path d="M54.7901 18.3981V3.23768H48.9262V1.7121H62.418V3.23768H56.5541V18.3981H54.7901Z" fill="#020325"/>
<path d="M64.6401 18.3981V0.710938H66.3326V9.31617L65.9988 8.67256C66.3961 7.76675 67.0318 7.05958 67.9058 6.55105C68.7798 6.02663 69.8207 5.76442 71.0285 5.76442C72.0455 5.76442 72.9355 5.96307 73.6983 6.36035C74.4769 6.74175 75.0808 7.32973 75.5099 8.12431C75.9548 8.91888 76.1773 9.92004 76.1773 11.1278V18.3981H74.4849V11.2947C74.4849 9.97566 74.1512 8.98245 73.4837 8.315C72.8322 7.63167 71.9105 7.29 70.7186 7.29C69.8287 7.29 69.05 7.47276 68.3826 7.83826C67.731 8.18787 67.2225 8.70434 66.857 9.38768C66.5074 10.0551 66.3326 10.8656 66.3326 11.8191V18.3981H64.6401Z" fill="#020325"/>
<path d="M80.5105 18.3981V5.88361H82.1314V9.29233L81.9646 8.6964C82.3142 7.74291 82.9021 7.01985 83.7285 6.52721C84.5549 6.01869 85.5799 5.76442 86.8035 5.76442V7.40919C86.7399 7.40919 86.6764 7.40919 86.6128 7.40919C86.5492 7.3933 86.4857 7.38535 86.4221 7.38535C85.1031 7.38535 84.0702 7.79059 83.3233 8.60105C82.5764 9.39562 82.2029 10.5319 82.2029 12.0098V18.3981H80.5105Z" fill="#020325"/>
<path d="M95.0123 18.5173C93.9475 18.5173 93.0179 18.3187 92.2233 17.9214C91.4287 17.5241 90.809 16.9282 90.364 16.1336C89.9349 15.339 89.7204 14.3458 89.7204 13.154V5.88361H91.4128V12.9633C91.4128 14.2981 91.7386 15.3073 92.3902 15.9906C93.0576 16.658 93.9873 16.9917 95.1791 16.9917C96.0531 16.9917 96.808 16.8169 97.4436 16.4673C98.0952 16.1018 98.5878 15.5774 98.9216 14.8941C99.2712 14.2107 99.446 13.3923 99.446 12.4388V5.88361H101.138V18.3981H99.5175V14.9656L99.7797 15.5854C99.3824 16.5071 98.7626 17.2301 97.9204 17.7545C97.094 18.2631 96.1247 18.5173 95.0123 18.5173Z" fill="#020325"/>
<path d="M108.978 18.5173C107.945 18.5173 106.968 18.3743 106.046 18.0883C105.124 17.7863 104.401 17.4129 103.877 16.9679L104.639 15.633C105.148 16.0144 105.8 16.3481 106.594 16.6342C107.389 16.9043 108.223 17.0394 109.097 17.0394C110.289 17.0394 111.147 16.8567 111.671 16.4912C112.196 16.1098 112.458 15.6092 112.458 14.9894C112.458 14.5286 112.307 14.171 112.005 13.9167C111.719 13.6466 111.338 13.4479 110.861 13.3208C110.384 13.1778 109.852 13.0586 109.264 12.9633C108.676 12.8679 108.088 12.7567 107.5 12.6295C106.928 12.5024 106.403 12.3197 105.927 12.0813C105.45 11.827 105.061 11.4854 104.759 11.0563C104.473 10.6272 104.33 10.0551 104.33 9.34C104.33 8.65667 104.52 8.04485 104.902 7.50454C105.283 6.96423 105.839 6.54311 106.57 6.24117C107.317 5.92334 108.223 5.76442 109.288 5.76442C110.098 5.76442 110.909 5.87566 111.719 6.09814C112.53 6.30473 113.197 6.58283 113.721 6.93245L112.983 8.29117C112.426 7.90977 111.83 7.63962 111.195 7.4807C110.559 7.3059 109.923 7.21849 109.288 7.21849C108.159 7.21849 107.325 7.41714 106.785 7.81442C106.26 8.19582 105.998 8.68845 105.998 9.29233C105.998 9.76907 106.141 10.1425 106.427 10.4127C106.729 10.6828 107.119 10.8974 107.595 11.0563C108.088 11.1993 108.62 11.3185 109.192 11.4138C109.78 11.5092 110.36 11.6284 110.933 11.7714C111.52 11.8985 112.053 12.0813 112.53 12.3197C113.022 12.5421 113.412 12.8679 113.698 13.297C114 13.7102 114.151 14.2584 114.151 14.9417C114.151 15.6728 113.944 16.3084 113.531 16.8487C113.133 17.3731 112.546 17.7863 111.767 18.0883C111.004 18.3743 110.074 18.5173 108.978 18.5173Z" fill="#020325"/>
<path d="M120.975 18.5173C119.799 18.5173 118.893 18.1995 118.257 17.5638C117.622 16.9282 117.304 16.0303 117.304 14.8702V3.11849H118.996V14.7749C118.996 15.5059 119.179 16.07 119.544 16.4673C119.926 16.8646 120.466 17.0633 121.165 17.0633C121.912 17.0633 122.532 16.8487 123.025 16.4197L123.621 17.6354C123.287 17.9373 122.882 18.1598 122.405 18.3028C121.944 18.4458 121.467 18.5173 120.975 18.5173ZM115.063 7.29V5.88361H122.81V7.29H115.063Z" fill="#020325"/>
<path d="M48.6791 33.1157L54.6092 19.8111H57.6502L63.5993 33.1157H60.3682L55.5025 21.3697H56.7189L51.8342 33.1157H48.6791ZM51.6441 30.2648L52.4614 27.9269H59.3038L60.1401 30.2648H51.6441Z" fill="#020325"/>
<path d="M69.2964 36.9551C68.3334 36.9551 67.402 36.8347 66.5024 36.594C65.6154 36.3659 64.8742 36.0174 64.2786 35.5486L65.457 33.4199C65.8878 33.7746 66.4327 34.0534 67.0916 34.2561C67.7632 34.4715 68.4221 34.5793 69.0683 34.5793C70.12 34.5793 70.8802 34.3448 71.3491 33.876C71.8306 33.4072 72.0713 32.7103 72.0713 31.7853V30.2458L72.2614 27.6799L72.2234 25.095V22.8902H75.0364V31.4052C75.0364 33.3058 74.5422 34.706 73.5538 35.6056C72.5655 36.5053 71.1463 36.9551 69.2964 36.9551ZM68.8402 32.6216C67.8899 32.6216 67.0282 32.4188 66.2553 32.0134C65.495 31.5952 64.8805 31.0187 64.4117 30.2838C63.9555 29.5362 63.7274 28.6682 63.7274 27.6799C63.7274 26.6788 63.9555 25.8109 64.4117 25.076C64.8805 24.3284 65.495 23.7518 66.2553 23.3464C67.0282 22.9409 67.8899 22.7381 68.8402 22.7381C69.7018 22.7381 70.4621 22.9155 71.121 23.2703C71.7799 23.6125 72.2931 24.151 72.6605 24.8859C73.028 25.6081 73.2117 26.5395 73.2117 27.6799C73.2117 28.8076 73.028 29.7389 72.6605 30.4738C72.2931 31.1961 71.7799 31.7346 71.121 32.0894C70.4621 32.4442 69.7018 32.6216 68.8402 32.6216ZM69.4294 30.1887C69.9489 30.1887 70.4114 30.0874 70.8169 29.8846C71.2224 29.6692 71.5391 29.3714 71.7672 28.9913C71.9953 28.6112 72.1093 28.174 72.1093 27.6799C72.1093 27.173 71.9953 26.7359 71.7672 26.3684C71.5391 25.9883 71.2224 25.6968 70.8169 25.4941C70.4114 25.2787 69.9489 25.171 69.4294 25.171C68.9099 25.171 68.4474 25.2787 68.0419 25.4941C67.6365 25.6968 67.3133 25.9883 67.0726 26.3684C66.8445 26.7359 66.7305 27.173 66.7305 27.6799C66.7305 28.174 66.8445 28.6112 67.0726 28.9913C67.3133 29.3714 67.6365 29.6692 68.0419 29.8846C68.4474 30.0874 68.9099 30.1887 69.4294 30.1887Z" fill="#020325"/>
<path d="M82.6807 33.2678C81.515 33.2678 80.4886 33.0397 79.6016 32.5836C78.7273 32.1274 78.0494 31.5065 77.5679 30.7209C77.0864 29.9226 76.8457 29.0167 76.8457 28.003C76.8457 26.9766 77.0801 26.0706 77.5489 25.285C78.0304 24.4868 78.683 23.8659 79.5066 23.4224C80.3302 22.9662 81.2616 22.7381 82.3006 22.7381C83.3016 22.7381 84.2012 22.9536 84.9995 23.3844C85.8105 23.8025 86.4504 24.4107 86.9192 25.209C87.388 25.9946 87.6224 26.9386 87.6224 28.041C87.6224 28.155 87.6161 28.2881 87.6034 28.4401C87.5908 28.5795 87.5781 28.7126 87.5654 28.8393H79.2595V27.1097H86.0069L84.8665 27.6228C84.8665 27.0907 84.7588 26.6282 84.5434 26.2354C84.328 25.8426 84.0302 25.5385 83.6501 25.323C83.2699 25.095 82.8264 24.9809 82.3196 24.9809C81.8128 24.9809 81.3629 25.095 80.9701 25.323C80.59 25.5385 80.2922 25.8489 80.0768 26.2544C79.8614 26.6472 79.7537 27.116 79.7537 27.6609V28.117C79.7537 28.6745 79.8741 29.1687 80.1148 29.5995C80.3682 30.0177 80.7167 30.3408 81.1602 30.5689C81.6163 30.7843 82.1485 30.892 82.7567 30.892C83.3016 30.892 83.7768 30.8096 84.1822 30.6449C84.6004 30.4802 84.9805 30.2331 85.3226 29.9036L86.9002 31.6142C86.4314 32.1464 85.8421 32.5582 85.1326 32.8497C84.423 33.1284 83.6057 33.2678 82.6807 33.2678Z" fill="#020325"/>
<path d="M89.4064 33.1157V22.8902H92.2384V25.7222L91.7062 24.8669C92.0736 24.1826 92.5995 23.6568 93.2837 23.2893C93.968 22.9219 94.7472 22.7381 95.6215 22.7381C96.4325 22.7381 97.1547 22.9029 97.7883 23.2323C98.4345 23.5491 98.9414 24.0433 99.3088 24.7148C99.6763 25.3737 99.86 26.2227 99.86 27.2617V33.1157H96.895V27.7179C96.895 26.8943 96.7113 26.286 96.3438 25.8932C95.989 25.5004 95.4822 25.304 94.8233 25.304C94.3544 25.304 93.93 25.4054 93.5498 25.6081C93.1824 25.7982 92.8909 26.096 92.6755 26.5015C92.4728 26.9069 92.3714 27.4264 92.3714 28.06V33.1157H89.4064Z" fill="#020325"/>
<path d="M107.374 33.2678C106.271 33.2678 105.289 33.0461 104.428 32.6026C103.566 32.1464 102.888 31.5192 102.394 30.7209C101.912 29.9226 101.672 29.0167 101.672 28.003C101.672 26.9766 101.912 26.0706 102.394 25.285C102.888 24.4868 103.566 23.8659 104.428 23.4224C105.289 22.9662 106.271 22.7381 107.374 22.7381C108.451 22.7381 109.388 22.9662 110.187 23.4224C110.985 23.8659 111.574 24.5058 111.954 25.3421L109.654 26.5775C109.388 26.096 109.052 25.7412 108.647 25.5131C108.254 25.285 107.823 25.171 107.355 25.171C106.848 25.171 106.392 25.285 105.986 25.5131C105.581 25.7412 105.257 26.0643 105.017 26.4824C104.789 26.9006 104.675 27.4074 104.675 28.003C104.675 28.5985 104.789 29.1054 105.017 29.5235C105.257 29.9416 105.581 30.2648 105.986 30.4928C106.392 30.7209 106.848 30.835 107.355 30.835C107.823 30.835 108.254 30.7273 108.647 30.5118C109.052 30.2838 109.388 29.9226 109.654 29.4285L111.954 30.6829C111.574 31.5065 110.985 32.1464 110.187 32.6026C109.388 33.0461 108.451 33.2678 107.374 33.2678Z" fill="#020325"/>
<path d="M114.764 36.9551C114.232 36.9551 113.706 36.8727 113.186 36.708C112.667 36.5433 112.242 36.3152 111.913 36.0238L112.996 33.914C113.224 34.1168 113.484 34.2751 113.775 34.3892C114.079 34.5032 114.377 34.5602 114.669 34.5602C115.087 34.5602 115.416 34.4589 115.657 34.2561C115.91 34.0661 116.139 33.743 116.341 33.2868L116.873 32.0324L117.102 31.7093L120.77 22.8902H123.621L119.002 33.743C118.673 34.5666 118.293 35.2128 117.862 35.6816C117.444 36.1505 116.975 36.4799 116.455 36.67C115.948 36.86 115.385 36.9551 114.764 36.9551ZM116.512 33.5149L111.951 22.8902H115.011L118.546 31.4432L116.512 33.5149Z" fill="#020325"/>
<path d="M2.56813 14.8484L8.87171 0H30.2105L17.1831 30.7241L0 40.6231L10.8795 14.8484H2.56813Z" fill="#FF7C3D"/>
<path d="M32.8253 0L19.7979 30.6307C25.7746 20.0314 31.8029 14.8831 39.6892 14.8484L45.9928 0H32.8253Z" fill="#FF7C3D"/>
</svg>
